<svg xmlns="http://www.w3.org/2000/svg" width="82.779" height="73.76" viewBox="0 0 82.779 73.76">
  <g id="return-of-investment" transform="translate(0.5 0.5)">
    <path id="Path_10452" data-name="Path 10452" d="M71.705,232.744a2.4,2.4,0,0,0-3.234,1.011,30.576,30.576,0,0,1-57.67-14.1l1.923,1.923a2.4,2.4,0,1,0,3.388-3.388l-5.9-5.9a2.392,2.392,0,0,0-3.654.055L.7,218.185a2.4,2.4,0,1,0,3.388,3.388l1.919-1.918a35.367,35.367,0,0,0,66.707,16.323A2.4,2.4,0,0,0,71.705,232.744Z" transform="translate(-0.001 -182.194)" fill="currentColor" stroke="currentColor" stroke-width="1"/>
    <path id="Path_10453" data-name="Path 10453" d="M127.317,61.615a2.4,2.4,0,0,0-3.388,0l-1.919,1.919A35.367,35.367,0,0,0,55.3,47.21a2.4,2.4,0,1,0,4.245,2.224,30.576,30.576,0,0,1,57.67,14.1L115.3,61.615A2.4,2.4,0,0,0,111.907,65l5.9,5.9a2.392,2.392,0,0,0,3.655-.052L127.316,65a2.4,2.4,0,0,0,0-3.388Z" transform="translate(-46.239 -28.235)" fill="currentColor" stroke="currentColor" stroke-width="1"/>
    <path id="Path_10454" data-name="Path 10454" d="M213.949,160.142a23.259,23.259,0,0,1-5.909-2.746,1.986,1.986,0,0,1-.455-1.888,2.711,2.711,0,0,1,1.786-2.138,4.777,4.777,0,0,1,4.322.635,2.4,2.4,0,0,0,2.869-3.838,9.554,9.554,0,0,0-3.568-1.6v-.975a2.4,2.4,0,1,0-4.792,0v1.131c-.071.02-.141.038-.213.06a7.452,7.452,0,0,0-5.113,5.839,6.648,6.648,0,0,0,2.206,6.546c1.523,1.195,3.629,2.207,7.269,3.493a3.088,3.088,0,0,1,2.236,3.621,4.037,4.037,0,0,1-4.006,3.405c-2.316.016-3.038-.1-4.816-1.263a2.4,2.4,0,1,0-2.623,4.01,10.67,10.67,0,0,0,5.06,1.95v1.1a2.4,2.4,0,1,0,4.792,0v-1.325a8.583,8.583,0,0,0,3.551-1.972,8.99,8.99,0,0,0,2.769-5.106A7.894,7.894,0,0,0,213.949,160.142Z" transform="translate(-169.784 -126.514)" fill="currentColor" stroke="currentColor" stroke-width="1"/>
  </g>
</svg>
