<svg xmlns="http://www.w3.org/2000/svg" width="56" height="56" viewBox="0 0 56 56">
  <g id="Group_6149" data-name="Group 6149" transform="translate(-2112.5 -801.5)">
    <circle id="Ellipse_1253" data-name="Ellipse 1253" cx="27.5" cy="27.5" r="27.5" transform="translate(2113 802)" fill="#fff" stroke="#757575" stroke-width="1"/>
    <g id="noun_university_4078212" transform="translate(2118.717 803.5)">
      <g id="Group_6164" data-name="Group 6164" transform="translate(5 9)">
        <path id="Path_11175" data-name="Path 11175" d="M5.747,19.093H37.823V17.517L21.785,9.784,5.747,17.517ZM5.376,36.111H7.545V22.55H6.911a.368.368,0,0,1-.366-.371V19.835H5.376A.375.375,0,0,1,5,19.459l.005-2.174a.371.371,0,0,1,.206-.335L21.626,9.037a.366.366,0,0,1,.319,0l16.389,7.9a.368.368,0,0,1,.232.345v2.174a.371.371,0,0,1-.371.376H37.02V22.18a.365.365,0,0,1-.366.371h-.629v13.56h2.169a.369.369,0,0,1,.371.371v2.287a.373.373,0,0,1-.371.371H5.376A.377.377,0,0,1,5,38.769V36.481A.374.374,0,0,1,5.376,36.111Zm9.572-16.275V22.18a.369.369,0,0,1-.371.371h-.629v13.56h4.637V22.55h-.634a.365.365,0,0,1-.366-.371V19.835Zm11.036,0V22.18a.368.368,0,0,1-.366.371h-.634v13.56h4.637V22.55h-.634a.368.368,0,0,1-.366-.371V19.835Zm3.369,1.973h6.935V19.83H29.354Zm-11.036,0h6.935V19.83H18.318Zm-11.041,0h6.935V19.83H7.277Zm1.01,14.3H13.2V22.55H8.287Zm11.041,0h4.915V22.55H19.328Zm11.036,0h4.915V22.55H30.363ZM5.747,38.393H37.829V36.847H5.747Z" transform="translate(-5 -9)" fill="#757575" fill-rule="evenodd"/>
      </g>
    </g>
  </g>
</svg>
