<svg xmlns="http://www.w3.org/2000/svg" width="16.905" height="21.413" viewBox="0 0 16.905 21.413">
  <g id="noun_Financial_Document_2621326" data-name="noun_Financial Document_2621326" transform="translate(20 -98)">
    <g id="Group_6064" data-name="Group 6064" transform="translate(-20 98)">
      <path id="Path_10902" data-name="Path 10902" d="M12.545,9.292V12.5c2.679.748,3.712,1.372,3.712,2.817,0,1.555-1.645,2.741-3.712,2.926V19.4a.564.564,0,0,1-1.127,0V18.246c-2.067-.184-3.713-1.37-3.713-2.926a.564.564,0,0,1,1.127,0c0,.839,1.09,1.631,2.586,1.793V13.362c-2.239-.635-3.182-1.238-3.182-2.551,0-1.4,1.406-2.466,3.182-2.655V7.564a.564.564,0,1,1,1.127,0v.594c1.776.189,3.182,1.257,3.182,2.655a.564.564,0,1,1-1.127,0C14.6,10.116,13.744,9.453,12.545,9.292Zm-1.127,0c-1.2.162-2.055.824-2.055,1.52,0,.536.577.928,2.055,1.376v-2.9Zm1.127,7.822c1.5-.162,2.585-.954,2.585-1.793,0-.65-.7-1.093-2.585-1.645v3.438Z" transform="translate(-3.529 -1.365)" fill="#757575"/>
      <path id="Path_10903" data-name="Path 10903" d="M15.27,3.127H5.127V22.286H19.778V7.635H15.834a.564.564,0,0,1-.564-.564Zm1.127.8V6.508h2.584ZM4,2.564A.564.564,0,0,1,4.564,2h11.27a.564.564,0,0,1,.4.165L20.74,6.673a.564.564,0,0,1,.165.4V22.85a.564.564,0,0,1-.564.564H4.564A.564.564,0,0,1,4,22.85Z" transform="translate(-4 -2)" fill="#757575"/>
    </g>
  </g>
</svg>
